HIERARCHY
ROOT Pelvis
{
	OFFSET 0.000000 0.000000 0.000000
	CHANNELS 6 Xposition Yposition Zposition Xrotation Yrotation Zrotation
	JOINT LeftUpLeg_virtual
	{
		OFFSET 0.000000 0.000000 0.000000
		CHANNELS 3 Xrotation Yrotation Zrotation
		JOINT LeftUpLeg
		{
			OFFSET 18.735201 -5.666702 -4.541200
			CHANNELS 3 Xrotation Yrotation Zrotation
			JOINT LeftLeg
			{
				OFFSET -0.021200 -31.938179 0.493100
				CHANNELS 3 Xrotation Yrotation Zrotation
				JOINT LeftFoot
				{
					OFFSET 0.021200 -31.938179 -4.336299
					CHANNELS 3 Xrotation Yrotation Zrotation
					JOINT LeftToeBase
					{
						OFFSET 0.943001 -26.722000 15.023500
						CHANNELS 3 Xrotation Yrotation Zrotation
						End Site
						{
							OFFSET 0 0 0
						}
					}
				}
			}
		}
	}
	JOINT RightUpLeg_virtual
	{
		OFFSET 0.000000 0.000000 0.000000
		CHANNELS 3 Xrotation Yrotation Zrotation
		JOINT RightUpLeg
		{
			OFFSET -18.735201 -5.666702 -4.541200
			CHANNELS 3 Xrotation Yrotation Zrotation
			JOINT RightLeg
			{
				OFFSET 0.018946 -31.938133 0.493100
				CHANNELS 3 Xrotation Yrotation Zrotation
				JOINT RightFoot
				{
					OFFSET -0.018946 -31.938126 -4.336299
					CHANNELS 3 Xrotation Yrotation Zrotation
					JOINT RightToeBase
					{
						OFFSET -0.943001 -26.722004 15.023500
						CHANNELS 3 Xrotation Yrotation Zrotation
						End Site
						{
							OFFSET 0 0 0
						}
					}
				}
			}
		}
	}
	JOINT Hips_virtual
	{
		OFFSET 0.000000 0.000000 0.000000
		CHANNELS 3 Xrotation Yrotation Zrotation
		JOINT Hips
		{
			OFFSET -0.000000 -0.000000 -0.000000
			CHANNELS 3 Xrotation Yrotation Zrotation
			JOINT Spine
			{
				OFFSET 0.000000 10.199997 -0.299500
				CHANNELS 3 Xrotation Yrotation Zrotation
				JOINT Spine1
				{
					OFFSET 0.000000 11.900002 -1.516600
					CHANNELS 3 Xrotation Yrotation Zrotation
					JOINT Spine2
					{
						OFFSET 0.000000 13.600006 -2.842500
						CHANNELS 3 Xrotation Yrotation Zrotation
						JOINT Neck_virtual
						{
							OFFSET 0.000000 0.000000 0.000000
							CHANNELS 3 Xrotation Yrotation Zrotation
							JOINT Neck
							{
								OFFSET 0.000000 9.624100 -2.890100
								CHANNELS 3 Xrotation Yrotation Zrotation
								JOINT Head
								{
									OFFSET 0.000000 14.068802 -1.351900
									CHANNELS 3 Xrotation Yrotation Zrotation
									End Site
									{
										OFFSET 0 0 0
									}
								}
							}
						}
						JOINT LeftShoulder_virtual
						{
							OFFSET 0.000000 0.000000 0.000000
							CHANNELS 3 Xrotation Yrotation Zrotation
							JOINT LeftShoulder
							{
								OFFSET 15.263000 10.923401 -0.547700
								CHANNELS 3 Xrotation Yrotation Zrotation
								JOINT LeftArm
								{
									OFFSET 25.438599 -2.830597 -13.032500
									CHANNELS 3 Xrotation Yrotation Zrotation
									JOINT LeftForeArm
									{
										OFFSET 29.960503 0.000000 0.000000
										CHANNELS 3 Xrotation Yrotation Zrotation
										JOINT LeftHand
										{
											OFFSET 27.849251 0.000000 0.000000
											CHANNELS 3 Xrotation Yrotation Zrotation
											End Site
											{
												OFFSET 0 0 0
											}
										}
									}
								}
							}
						}
						JOINT RightShoulder_virtual
						{
							OFFSET 0.000000 0.000000 0.000000
							CHANNELS 3 Xrotation Yrotation Zrotation
							JOINT RightShoulder
							{
								OFFSET -15.263000 10.923401 -0.547700
								CHANNELS 3 Xrotation Yrotation Zrotation
								JOINT RightArm
								{
									OFFSET -25.438599 -2.830597 -13.032500
									CHANNELS 3 Xrotation Yrotation Zrotation
									JOINT RightForeArm
									{
										OFFSET -29.960503 0.000000 0.000000
										CHANNELS 3 Xrotation Yrotation Zrotation
										JOINT RightHand
										{
											OFFSET -27.849251 0.000000 0.000000
											CHANNELS 3 Xrotation Yrotation Zrotation
											End Site
											{
												OFFSET 0 0 0
											}
										}
									}
								}
							}
						}
					}
				}
			}
		}
	}
}
MOTION
Frames: 6
Frame Time: 0.03333333
76.547073 89.537109 58.301247 0.000000 0.000000 0.000000 4.031137 59.590962 -8.603725 -34.963960 -27.293583 -2.409777 22.314477 9.877457 -17.902559 23.266326 -11.473206 7.929758 0.000000 0.000000 0.000000 3.592371 60.511487 -8.740716 8.340426 -15.537678 3.793053 24.434737 4.161110 1.947702 8.788318 -15.198231 16.795727 0.000000 0.000000 0.000000 4.200674 59.756505 -8.666339 -0.823775 -0.055956 -0.070484 1.744776 12.824859 -1.178646 -0.238478 8.525591 2.234223 0.000000 0.000000 0.000000 2.771017 12.503478 0.323979 6.695081 -2.860091 -0.156693 0.000000 0.000000 0.000000 3.319313 11.984713 0.363953 -3.228866 -13.166806 -19.580440 13.353798 -38.510843 -39.518669 19.148157 -80.483882 13.178133 0.000000 0.000000 0.000000 3.387827 12.818625 -0.472999 -0.834260 35.806133 16.196054 -12.874417 48.759112 44.432194 -5.753666 32.372573 2.095299 0.000000 0.000000 0.000000 
76.135124 89.714699 58.061523 0.000000 0.000000 0.000000 3.972003 56.742176 -7.984150 -34.776369 -26.859594 -1.463189 22.324205 10.322863 -17.493796 23.177272 -11.916582 6.786523 0.000000 0.000000 0.000000 3.639478 57.860158 -8.177809 9.245347 -16.067110 3.498588 21.519114 2.621361 0.333297 7.236362 -17.291650 13.531689 0.000000 0.000000 0.000000 4.150712 56.928879 -8.105340 -0.821842 -0.035751 -0.069144 2.159400 12.283448 -0.623389 -0.587414 7.926199 1.978040 0.000000 0.000000 0.000000 2.511201 11.755588 0.169549 6.938259 -2.708063 -0.258408 0.000000 0.000000 0.000000 3.045545 11.276045 0.279981 -2.925670 -12.845524 -19.218542 12.133474 -39.251472 -40.668719 13.899054 -77.625400 7.964711 0.000000 0.000000 0.000000 3.179693 12.061664 -0.671335 -1.270745 35.052336 18.023607 -13.755286 47.758038 43.951226 -6.277552 30.911541 3.191050 0.000000 0.000000 0.000000 
75.661232 89.757759 57.799881 0.000000 0.000000 0.000000 4.048684 53.571264 -7.221079 -34.726126 -26.181536 -0.523045 22.575843 10.664836 -17.232337 22.675825 -12.586175 5.292022 0.000000 0.000000 0.000000 3.674827 54.764696 -7.282530 10.579353 -16.354707 3.021458 18.103490 0.770636 -1.541911 4.679877 -20.415900 8.674361 0.000000 0.000000 0.000000 4.087867 53.872878 -7.300932 -0.814983 -0.053884 -0.039340 2.520019 11.787540 -0.305602 -0.884775 7.384696 1.707282 0.000000 0.000000 0.000000 2.387557 11.114700 -0.041660 7.135080 -2.531381 -0.374714 0.000000 0.000000 0.000000 2.802390 10.653503 0.127932 -2.654636 -12.447524 -18.828733 10.019712 -40.093723 -42.511453 10.471925 -74.300184 4.693064 0.000000 0.000000 0.000000 3.027546 11.420237 -0.896303 -1.638431 34.173246 19.797233 -13.817302 46.588608 42.671866 -6.771895 30.439144 4.220623 0.000000 0.000000 0.000000 
75.133575 89.682297 57.528393 0.000000 0.000000 0.000000 4.246253 50.232216 -6.445866 -35.073698 -25.183585 0.456785 23.344545 11.006145 -17.139625 21.977242 -13.139314 3.803394 0.000000 0.000000 0.000000 3.912652 51.444698 -6.393597 11.732506 -16.889673 2.320773 14.919479 -0.984560 -3.087669 1.433180 -23.388772 3.950876 0.000000 0.000000 0.000000 4.186545 50.634542 -6.477382 -0.809552 -0.081579 0.004209 2.942807 11.336870 -0.209072 -1.099461 6.876247 1.453685 0.000000 0.000000 0.000000 2.395915 10.553154 -0.298774 7.253301 -2.323538 -0.505532 0.000000 0.000000 0.000000 2.613184 10.089104 -0.067262 -2.423170 -11.969099 -18.394275 7.329804 -40.438941 -44.930671 8.629161 -71.695212 3.174786 0.000000 0.000000 0.000000 2.894187 10.863361 -1.116962 -1.819869 33.108092 21.256925 -13.365012 45.351636 41.157542 -7.211982 31.111935 5.066193 0.000000 0.000000 0.000000 
74.582985 89.536926 57.279938 0.000000 0.000000 0.000000 4.573930 46.879700 -5.808333 -35.914163 -24.026650 1.448613 24.903626 11.418429 -17.124314 21.231867 -13.089347 2.856944 0.000000 0.000000 0.000000 4.412704 48.021769 -5.776139 12.015836 -17.712484 1.335832 12.728273 -2.156221 -3.884709 -1.085388 -25.247782 1.200643 0.000000 0.000000 0.000000 4.538907 47.299695 -5.838400 -0.806052 -0.097799 0.043880 3.468141 10.919786 -0.200795 -1.246949 6.375515 1.244751 0.000000 0.000000 0.000000 2.477713 10.016815 -0.567660 7.255136 -2.087138 -0.649910 0.000000 0.000000 0.000000 2.460633 9.542198 -0.242993 -2.240813 -11.373118 -17.912135 4.820256 -40.153702 -47.411741 7.527822 -70.376637 2.579095 0.000000 0.000000 0.000000 2.760884 10.347181 -1.301196 -1.743057 31.894436 22.206453 -12.656621 44.160882 39.862043 -7.637283 33.076410 5.633823 0.000000 0.000000 0.000000 
73.988426 89.385704 57.137093 0.000000 0.000000 0.000000 5.000588 43.534973 -5.367506 -36.746264 -22.925593 2.506069 26.789771 11.927318 -17.024019 20.152355 -12.441568 2.483347 0.000000 0.000000 0.000000 5.005206 44.605524 -5.418786 11.443926 -18.378120 0.243338 11.450017 -2.463984 -3.954145 -1.936337 -25.756244 1.330272 0.000000 0.000000 0.000000 5.103520 43.999764 -5.442821 -0.806599 -0.088729 0.052954 4.068678 10.507040 -0.136598 -1.364305 5.863207 1.142775 0.000000 0.000000 0.000000 2.558019 9.463525 -0.778734 7.143174 -1.820376 -0.800553 0.000000 0.000000 0.000000 2.336587 8.980636 -0.333714 -2.086781 -10.674429 -17.372451 2.842550 -39.342221 -49.799671 6.843462 -70.144895 2.497026 0.000000 0.000000 0.000000 2.595997 9.816380 -1.400651 -1.445428 30.591697 22.742884 -11.817536 42.951242 38.894905 -8.041069 36.429258 5.960431 0.000000 0.000000 0.000000 
